<svg width="21" height="18" viewBox="0 0 21 18" fill="none" xmlns="http://www.w3.org/2000/svg">
<path d="M10.3178 17.9141C5.81779 14.0234 2.98967 11.3594 1.83342 9.92188C0.817795 8.67188 0.309982 7.32031 0.309982 5.86719C0.309982 4.35156 0.849045 3.09375 1.92717 2.09375C3.05217 1.01562 4.41936 0.476562 6.02873 0.476562C7.63811 0.476562 9.00529 1.01562 10.1303 2.09375L10.2944 2.25781L10.4584 2.09375C11.6147 1.01562 12.9819 0.476562 14.56 0.476562C16.1537 0.476562 17.5287 1.01562 18.685 2.09375C19.7787 3.14062 20.3256 4.39844 20.3256 5.86719C20.3256 7.30469 19.8022 8.66406 18.7553 9.94531C18.2397 10.5703 17.2787 11.5469 15.8725 12.875C14.4662 14.2031 13.1928 15.375 12.0522 16.3906L10.3178 17.9141ZM6.02873 2.46875C4.96623 2.46875 4.05998 2.82031 3.30998 3.52344C2.63811 4.17969 2.30217 4.94531 2.30217 5.82031C2.30217 6.83594 2.66154 7.78125 3.38029 8.65625C4.31779 9.79688 6.63029 12 10.3178 15.2656C14.0365 11.9375 16.3334 9.73438 17.2084 8.65625C17.9428 7.76562 18.31 6.83594 18.31 5.86719C18.31 4.97656 17.974 4.20312 17.3022 3.54688C16.5522 2.82812 15.6381 2.46875 14.56 2.46875C13.4975 2.46875 12.5912 2.82812 11.8412 3.54688L10.2944 5L8.74748 3.52344C7.99748 2.82031 7.09123 2.46875 6.02873 2.46875Z" fill="black"/>
</svg>
