<svg width="25" height="25" viewBox="0 0 25 25" fill="none" xmlns="http://www.w3.org/2000/svg">
<g clip-path="url(#clip0_1_254)">
<path d="M19.8394 4.20312C20.1519 4.70312 20.3472 5.28125 20.4253 5.9375C20.4409 6.03125 20.4487 6.16406 20.4487 6.33594C20.4487 6.80469 20.3628 7.28125 20.1909 7.76562C19.9878 8.35938 19.6597 8.875 19.2065 9.3125L7.93311 20.6094L0.901855 22.2031H0.831543C0.800293 22.2031 0.753418 22.1875 0.690918 22.1562C0.628418 22.125 0.589355 22.0938 0.57373 22.0625C0.526855 22.0156 0.503418 21.9688 0.503418 21.9219C0.487793 21.8906 0.47998 21.8438 0.47998 21.7812L2.02686 14.6797L13.2065 3.5C14.0815 2.65625 15.1284 2.21875 16.3472 2.1875H16.3706C17.1675 2.1875 17.9019 2.41406 18.5737 2.86719C19.1206 3.24219 19.5425 3.6875 19.8394 4.20312ZM17.5894 6.80469C17.6519 6.61719 17.6753 6.42188 17.6597 6.21875C17.6284 5.98438 17.5581 5.78906 17.4487 5.63281C17.3237 5.42969 17.1753 5.27344 17.0034 5.16406C16.8003 5.03906 16.5815 4.97656 16.3472 4.97656C15.894 4.97656 15.5034 5.14062 15.1753 5.46875L4.60498 16.0859L4.04248 18.6406L6.52686 18.0547L17.2612 7.32031C17.4175 7.16406 17.5269 6.99219 17.5894 6.80469Z" fill="black"/>
</g>
<defs>
<clipPath id="clip0_1_254">
<rect width="24" height="24" fill="white" transform="matrix(1 0 0 -1 0.47998 24.5)"/>
</clipPath>
</defs>
</svg>
