<svg width="25" height="25" viewBox="0 0 25 25" fill="none" xmlns="http://www.w3.org/2000/svg">
<g clip-path="url(#clip0_1_264)">
<path d="M8.66217 22.25C7.81842 22.25 7.10748 21.9609 6.52936 21.3828C5.95123 20.8047 5.66217 20.0938 5.66217 19.25H11.6622C11.6622 20.0938 11.3809 20.8047 10.8184 21.3828C10.2403 21.9609 9.52154 22.25 8.66217 22.25ZM16.3731 16.1562C16.5919 16.2656 16.6544 16.3984 16.5606 16.5547V17.75C16.5762 17.7812 16.584 17.8281 16.584 17.8906C16.584 18.125 16.4434 18.2422 16.1622 18.2422H1.06842C0.802795 18.2422 0.669983 18.0781 0.669983 17.75V16.5547C0.669983 16.4141 0.771545 16.2422 0.97467 16.0391L2.56842 15.2422H2.66217C2.66217 14.7422 2.66217 14.1797 2.66217 13.5547C2.6778 12.9297 2.69342 12.3516 2.70905 11.8203C2.72467 11.2734 2.73248 10.7734 2.73248 10.3203C2.74811 9.85156 2.75592 9.47656 2.75592 9.19531C2.77155 8.91406 2.77936 8.76562 2.77936 8.75C2.76373 8.70312 2.75592 8.63281 2.75592 8.53906C2.75592 6.25781 4.06061 4.85938 6.66998 4.34375V4.15625C6.66998 3.60938 6.8653 3.14062 7.25592 2.75C7.64654 2.34375 8.11529 2.14062 8.66217 2.14062C9.20904 2.14062 9.67779 2.33594 10.0684 2.72656C10.4747 3.13281 10.6778 3.60938 10.6778 4.15625V4.34375C11.8809 4.60938 12.8419 5.10156 13.5606 5.82031C14.295 6.55469 14.6622 7.5 14.6622 8.65625V15.2422H14.7794L16.3731 16.1562ZM12.67 16.25V8.65625C12.67 8.15625 12.5372 7.73438 12.2715 7.39062C12.0059 7.04688 11.6544 6.80469 11.2169 6.66406C10.7637 6.50781 10.3419 6.39844 9.95123 6.33594C9.54498 6.27344 9.11529 6.24219 8.66217 6.24219C8.61529 6.24219 8.54498 6.24219 8.45123 6.24219C8.34186 6.22656 8.26373 6.21875 8.21686 6.21875C7.12311 6.21875 6.13873 6.53125 5.26373 7.15625C4.91998 7.5 4.74811 7.92969 4.74811 8.44531C4.74811 8.57031 4.75592 8.67188 4.77155 8.75V8.9375C4.77155 8.96875 4.75592 9.9375 4.72467 11.8438C4.69342 13.75 4.6778 15.2188 4.6778 16.25H12.67Z" fill="black"/>
</g>
<defs>
<clipPath id="clip0_1_264">
<rect width="24" height="24" fill="white" transform="matrix(1 0 0 -1 0.669983 24.5)"/>
</clipPath>
</defs>
</svg>
